**ABCDEFGHIJKLMNOPQRSTUVWXYZabcdefghijklmnopqrstuvwxyz**************************
**PARASOLID !"#$%&'()*+,-./:;<=>?@[\]^_`{|}~0123456789**************************
**PART1;
MC=unknown;
MC_MODEL=unknown;
MC_ID=unknown;
OS=unknown;
OS_RELEASE=unknown;
FRU=Parasolid 32.1.212;
APPL=Onshape;
SITE=unknown;
USER=unknown;
FORMAT=text;
GUISE=transmit;
KEY=BTGapi::writeModels_.xmt;
FILE=BTGapi::writeModels_.xmt;
DATE=2020-09-15T17:45:30 (UTC);
**PART2;
SCH=SCH_3201212_32001;
USFLD_SIZE=0;
**PART3;
**END_OF_HEADER*****************************************************************
T51 : TRANSMIT FILE created by modeller version 320121223 SCH_3201212_32001_1300
6229 0 12 34 CCCCCCI4 mesh1006 0 I8 polyline1008 0 CCCCCCCDI5 owner1040 0 CCCCCC
I13 boundary_mesh1006 0 I17 boundary_polyline1008 0 CCCA16 index_map_offset0 0 1
 dA9 index_map82 0 A17 node_id_index_map82 0 A20 schema_embedding_map82 0 A5 chi
ld12 0 A14 lowest_node_id0 0 1 dA16 mesh_offset_data206 0 Z1 701 2 3 0 0 0 0 0 0
 1e3 1e-8 0 4 5 1 0 1 1 6 7 8 9 0 0 10 11 12 0 0 0 0 0 0 0 81 255 1 2 665 13 1 1
4 0 15 16 17 70 11 CI9 list_type0 0 1 uI10 notransmit0 0 1 lCCCDCCDI12 finger_in
dex0 0 1 dI12 finger_block1012 0 CZ3 0 4 T1 0 0 6 20 1 18 18 13 255 6 137 0 1 0
 19 0 0 20 0 50 255 7 132 0 19 21 0 0 +.0127 -867361737988404e-33 .0127 1 -68296
1998416066e-31 0 682961998416066e-31 1 0 30 255 8 136 0 22 23 0 0 +.0127 .0127 .
0127 0 0 -1 29 255 9 113 0 24 25 0 .0127 -.0127 0 19 8 CCCCCCCA5 owner12 0 Z10 4
8 0 1 20 0 26 V0 16 255 11 215 15 ?27 0 22 28 0 0 1 18 255 12 42 29 30 0 31 32 ?
1 81 1 29 696 13 12 33 0 34 35 36 17 255 30 0 37 38 39 12 40 41 0 42 -18 31 37 4
3 44 12 45 46 ?1 29 32 44 0 12 46 47 .0127 -.0127 .0127 29 46 39 0 31 48 32 -.01
27 -.0127 .0127 29 47 116 0 49 32 50 .0127 .0127 0 18 49 104 51 52 53 0 47 ?1 29
 50 115 0 53 47 25 -.0127 .0127 0 18 53 100 54 55 56 49 50 ?1 29 25 114 0 56 50
 9 -.0127 -.0127 0 18 56 96 34 57 24 53 25 ?1 81 1 34 695 13 56 58 0 43 29 59 17
 57 0 37 39 38 56 60 61 0 62 +18 24 92 35 40 63 56 9 ?1 81 1 35 697 13 24 64 0 2
9 65 66 17 40 0 67 68 42 24 30 41 0 69 +18 63 27 70 71 45 24 72 ?1 81 1 70 700 1
3 63 73 0 54 51 74 17 71 0 67 42 68 63 52 22 0 75 -18 45 32 65 76 31 63 48 ?1 29
 72 29 0 63 0 48 .0127 .0127 .0127 29 48 34 0 45 72 46 -.0127 .0127 .0127 81 1 6
5 698 13 45 77 0 35 54 78 17 76 0 79 44 80 45 75 81 0 82 +15 255 79 6 0 80 83 0
 17 44 0 79 84 76 31 85 86 0 60 +17 80 0 79 76 84 63 42 87 0 0 -17 75 0 88 52 82
 63 76 81 0 80 -16 81 12 89 ?76 86 87 90 0 0 1 17 82 0 88 75 55 45 91 92 0 85 -1
5 88 125 0 55 93 0 17 55 0 88 82 52 53 94 95 0 91 +17 91 0 96 62 85 53 82 92 0 9
7 +16 92 119 98 ?91 22 61 23 0 0 1 17 85 0 96 91 60 45 44 86 0 0 -15 96 123 0 62
 99 0 17 60 0 96 85 62 31 57 61 0 38 -16 86 17 100 ?44 101 81 102 0 0 1 81 1 100
 682 13 86 103 0 104 105 106 16 101 22 107 ?38 41 86 108 0 0 1 30 102 19 0 86 90
 108 0 +-.0127 867361737988404e-33 .0127 -682961998416066e-31 -1 0 30 90 14 0 81
 109 102 0 +1734723475976805e-33 .0127 .0127 -1 0 0 30 108 24 0 101 102 110 0 +0
 -.0127 .0127 -1 0 0 30 110 112 0 111 108 112 0 +.0127 -867361737988404e-33 0 -6
82961998416066e-31 -1 0 16 111 88 113 ?69 95 114 110 0 0 1 30 112 111 0 95 110 1
15 0 +1734723475976805e-33 .0127 0 -1 0 0 16 95 84 116 ?55 117 111 112 0 0 1 30
 115 110 0 117 112 118 0 +-.0127 867361737988404e-33 0 -682961998416066e-31 -1 0
 16 117 80 105 ?62 119 95 115 0 0 1 30 118 109 0 119 115 120 0 +0 -.0127 0 -1 0
 0 16 119 76 121 ?122 87 117 118 0 0 1 30 120 133 0 41 118 123 0 +.0127 -.0127 .
0127 0 0 -1 16 41 117 124 ?40 61 101 120 0 0 1 30 123 134 0 61 120 23 0 +-.0127
 -.0127 .0127 0 0 -1 16 61 118 125 ?57 92 41 123 0 0 1 30 23 135 0 92 123 8 0 +-
.0127 .0127 .0127 0 0 -1 81 1 125 690 13 61 126 0 116 124 127 80 255 1 13 128 12
9 9000 0 0 0 0 3 5 0 0 0 FFTFTFTTFFFFFF3 81 1 126 163 128 61 0 125 130 131 132 8
1 1 116 689 13 95 131 0 89 125 133 81 1 124 691 13 41 130 0 125 98 134 84 255 3
 127 JHN81 1 130 162 128 41 0 124 135 126 136 81 1 98 692 13 92 135 0 124 137 13
8 84 3 134 JHJ81 1 135 161 128 92 0 98 139 130 140 81 1 137 693 13 22 139 0 98 4
3 141 84 3 138 JHF16 22 120 137 ?52 11 92 8 0 0 1 81 1 139 160 128 22 0 137 142
 135 143 81 1 43 694 13 31 142 0 137 34 144 84 3 141 JHB81 1 142 159 128 31 0 43
 58 139 145 84 3 144 JHc80 1 128 146 147 9000 0 0 0 0 3 6 0 0 0 FFTFTFTTFFFFFF1
 81 1 58 158 128 56 0 34 33 142 148 82 255 3 145 6 7 0 81 1 33 157 128 12 0 29 6
4 58 149 82 3 148 6 6 0 81 1 64 156 128 24 0 35 77 33 150 82 3 149 6 5 0 81 1 77
 155 128 45 0 65 151 64 152 82 3 150 6 4 0 81 1 151 154 128 53 0 54 73 77 153 82
 3 152 6 3 0 81 1 54 699 13 53 151 0 65 70 154 81 1 73 153 128 63 0 70 155 151 1
56 82 3 153 6 2 0 81 1 155 152 128 49 0 51 0 73 157 82 3 156 6 1 0 81 1 51 701 1
3 49 155 0 70 0 158 82 3 157 6 0 0 84 2 158 IH84 3 154 JHI79 255 9 147 BTI/DetId
82 3 143 6 0 1 17 52 0 88 55 75 49 71 22 0 94 +17 94 0 159 69 97 49 55 95 0 68 -
15 159 75 0 69 160 0 17 69 0 159 122 94 24 68 111 0 39 +17 97 0 159 94 122 53 62
 117 0 0 -17 68 0 67 71 40 49 69 111 0 0 -15 67 127 0 68 19 0 14 255 19 128 161
 ?93 0 67 6 7 +0 0 93 0 26 81 1 161 679 13 19 162 0 163 164 165 14 93 126 104 ?9
9 19 88 6 21 -0 0 99 19 26 13 26 49 0 0 0 0 0 0 10 19 81 1 104 681 13 93 166 0 1
64 100 167 14 99 124 163 ?168 93 96 6 169 -0 0 168 93 26 50 21 131 0 93 169 7 0
 +1734723475976805e-33 .0127 .0127 0 -1 0 0 0 -1 50 169 130 0 99 170 21 0 +-.012
7 867361737988404e-33 .0127 1 -682961998416066e-31 0 682961998416066e-31 1 0 50
 170 129 0 168 171 169 0 +0 -.0127 .0127 0 -1 0 0 0 -1 14 168 122 164 ?83 99 37
 6 170 +0 0 83 99 26 50 171 108 0 160 172 170 0 +0 0 0 0 0 1 1 0 0 14 160 68 173
 ?174 83 175 6 171 -0 0 174 83 26 50 172 3 0 83 176 171 0 +0 0 .0127 0 0 1 1 0 0
 14 83 1 177 ?160 168 178 6 172 +0 0 160 168 26 51 255 176 248 0 174 179 172 0 -
-.00635 .00635 .015875 0 0 -1 .003175 -1 0 0 14 174 233 180 ?181 160 182 6 176 -
0 0 181 160 26 50 179 250 0 181 183 176 0 +0 0 .015875 0 0 1 1 0 0 14 181 238 18
4 ?185 174 186 6 179 +0 0 185 174 26 51 183 289 0 185 187 179 0 --.00635 -.00635
 .015875 0 0 -1 .003175 -1 0 0 14 185 274 188 ?189 181 190 6 183 -0 0 189 181 26
 50 187 291 0 189 191 183 0 +0 0 .015875 0 0 1 1 0 0 14 189 279 192 ?193 185 194
 6 187 +0 0 193 185 26 51 191 328 0 193 195 187 0 -.00635 .00635 .015875 0 0 -1
 .003175 -1 0 0 14 193 313 196 ?197 189 198 6 191 -0 0 197 189 26 50 195 330 0 1
97 199 191 0 +0 0 .015875 0 0 1 1 0 0 14 197 318 200 ?201 193 202 6 195 +0 0 201
 193 26 51 199 367 0 201 203 195 0 -.00635 -.00635 .015875 0 0 -1 .003175 -1 0 0
 14 201 352 204 ?205 197 206 6 199 -0 0 205 197 26 50 203 369 0 205 207 199 0 +0
 0 .015875 0 0 1 1 0 0 14 205 357 16 ?208 201 209 6 203 +0 0 208 201 26 51 207 5
78 0 208 210 203 0 +-.00635 -.00635 .003175 0 0 -1 .003175 -1 0 0 14 208 557 211
 ?212 205 213 6 207 -0 0 212 205 26 50 210 580 0 212 214 207 0 +0 0 .003175 0 0
 -1 1 0 0 14 212 562 215 ?216 208 217 6 210 +0 0 216 208 26 51 214 581 0 218 219
 210 0 +-.00635 .00635 .003175 0 0 -1 .003175 -1 0 0 14 218 491 220 ?221 222 223
 6 214 -0 0 221 222 26 50 219 583 0 221 224 214 0 +0 0 .003175 0 0 -1 1 0 0 14 2
21 496 225 ?0 218 226 6 219 +0 0 0 218 26 51 224 584 0 227 228 219 0 +.00635 .00
635 .003175 0 0 -1 .003175 -1 0 0 14 227 513 229 ?222 230 231 6 224 -0 0 222 230
 26 50 228 586 0 222 232 224 0 +0 0 .003175 0 0 -1 1 0 0 14 222 518 233 ?218 227
 234 6 228 +0 0 218 227 26 51 232 587 0 216 235 228 0 +.00635 -.00635 .003175 0
 0 -1 .003175 -1 0 0 14 216 535 236 ?230 212 237 6 232 -0 0 230 212 26 50 235 58
9 0 230 0 232 0 +0 0 .003175 0 0 -1 1 0 0 14 230 540 238 ?227 216 239 6 235 +0 0
 227 216 26 81 1 238 646 13 230 240 0 229 236 241 15 239 543 0 242 230 0 17 242
 0 239 242 242 0 243 244 0 0 +17 243 0 237 243 243 0 242 244 0 0 -16 244 527 245
 ?242 246 247 248 0 0 1 81 1 245 654 13 244 249 0 250 251 252 16 246 552 253 ?25
4 255 244 256 0 0 1 16 247 530 251 ?257 244 258 259 0 0 1 31 255 248 597 0 244 0
 259 0 +.00635 -.00635 .003175 0 0 -1 -1 0 0 .003175 31 259 596 0 247 248 260 0
 +.00635 -.00635 0 0 0 -1 -1 0 0 .003175 31 260 595 0 258 259 261 0 +.00635 .006
35 .003175 0 0 -1 -1 0 0 .003175 16 258 505 262 ?263 247 264 260 0 0 1 31 261 59
4 0 264 260 265 0 +.00635 .00635 0 0 0 -1 -1 0 0 .003175 16 264 508 250 ?266 258
 267 261 0 0 1 31 265 593 0 267 261 268 0 +-.00635 .00635 .003175 0 0 -1 -1 0 0
 .003175 16 267 483 269 ?270 264 271 265 0 0 1 31 268 592 0 271 265 272 0 +-.006
35 .00635 0 0 0 -1 -1 0 0 .003175 16 271 486 273 ?274 267 0 268 0 0 1 31 272 591
 0 255 268 256 0 +-.00635 -.00635 .003175 0 0 -1 -1 0 0 .003175 16 255 549 275 ?
276 277 246 272 0 0 1 31 256 590 0 246 272 278 0 +-.00635 -.00635 0 0 0 -1 -1 0
 0 .003175 31 278 371 0 279 256 280 0 +.00635 -.00635 .015875 0 0 1 1 0 0 .00317
5 16 279 349 281 ?282 283 277 278 0 0 1 31 280 370 0 277 278 284 0 +.00635 -.006
35 .0127 0 0 1 1 0 0 .003175 16 277 344 285 ?286 279 255 280 0 0 1 31 284 332 0
 287 280 288 0 +.00635 .00635 .015875 0 0 1 1 0 0 .003175 16 287 310 289 ?290 29
1 283 284 0 0 1 31 288 331 0 283 284 292 0 +.00635 .00635 .0127 0 0 1 1 0 0 .003
175 16 283 305 293 ?294 287 279 288 0 0 1 31 292 293 0 295 288 296 0 +-.00635 -.
00635 .015875 0 0 1 1 0 0 .003175 16 295 271 297 ?298 114 291 292 0 0 1 31 296 2
92 0 291 292 299 0 +-.00635 -.00635 .0127 0 0 1 1 0 0 .003175 16 291 266 300 ?30
1 295 287 296 0 0 1 31 299 252 0 114 296 28 0 +-.00635 .00635 .015875 0 0 1 1 0
 0 .003175 16 114 230 302 ?303 111 295 299 0 0 1 31 28 251 0 11 299 109 0 +-.006
35 .00635 .0127 0 0 1 1 0 0 .003175 30 109 9 0 87 28 90 0 +.0127 -86736173798840
4e-33 .0127 -682961998416066e-31 -1 0 16 87 7 304 ?42 81 119 109 0 0 1 81 1 304
 684 13 87 305 0 105 113 306 17 42 0 67 40 71 12 80 87 0 84 +17 84 0 79 80 44 12
 38 101 0 0 -17 38 0 37 57 30 31 84 101 0 0 +15 37 121 0 39 168 0 17 39 0 37 30
 57 24 122 119 0 0 -17 122 0 159 97 69 56 39 119 0 0 +81 1 305 169 128 87 0 304
 307 308 309 81 1 105 683 13 117 308 0 100 304 310 81 1 113 685 13 111 307 0 304
 107 311 84 3 306 JHl81 1 307 168 128 111 0 113 312 305 313 81 1 107 686 13 101
 312 0 113 121 314 84 3 311 JHh81 1 312 167 128 101 0 107 315 307 316 81 1 121 6
87 13 119 315 0 107 89 317 84 3 314 JHd81 1 315 166 128 119 0 121 318 312 319 81
 1 89 688 13 81 318 0 121 116 320 84 3 317 JHZ81 1 318 165 128 81 0 89 131 315 3
21 84 3 320 JHV81 1 131 164 128 95 0 116 126 318 322 82 3 321 6 5 1 82 3 322 6 4
 1 82 3 319 6 6 1 82 3 316 6 7 1 82 3 313 6 8 1 81 1 308 170 128 117 0 105 305 1
03 323 84 3 310 JHp81 1 103 171 128 86 0 100 308 324 325 82 3 323 6 10 1 81 1 32
4 172 128 93 0 166 103 326 327 82 3 325 6 11 1 81 1 166 622 328 93 324 104 162 3
29 330 81 1 326 175 128 168 0 331 324 332 333 82 3 327 6 0 2 81 1 331 624 328 16
8 326 164 329 334 335 81 1 332 176 128 19 0 162 326 336 337 82 3 333 6 3 2 81 1
 162 621 328 19 332 161 0 166 338 81 1 336 177 128 99 0 329 332 339 340 82 3 337
 6 4 2 81 1 329 623 328 99 336 163 166 331 341 81 1 339 232 128 114 0 302 336 34
2 343 82 3 340 6 5 2 81 1 302 677 13 114 339 0 180 163 344 81 1 342 235 128 174
 0 345 339 346 347 82 3 343 9 1 1 81 1 345 627 328 174 342 180 348 349 350 81 1
 346 240 128 181 0 349 342 351 352 82 3 347 9 0 2 81 1 349 628 328 181 346 184 3
45 353 354 81 1 351 273 128 295 0 297 346 355 356 82 3 352 9 2 2 81 1 297 674 13
 295 351 0 188 184 357 81 1 355 276 128 185 0 353 351 358 359 82 3 356 9 3 1 81
 1 353 629 328 185 355 188 349 360 361 81 1 358 281 128 189 0 360 355 362 363 82
 3 359 9 3 2 81 1 360 630 328 189 358 192 353 364 365 81 1 362 312 128 287 0 289
 358 366 367 82 3 363 9 5 2 81 1 289 671 13 287 362 0 196 192 368 81 1 366 315 1
28 193 0 364 362 369 370 82 3 367 9 5 1 81 1 364 631 328 193 366 196 360 371 372
 81 1 369 320 128 197 0 371 366 373 374 82 3 370 9 6 2 81 1 371 632 328 197 369
 200 364 375 376 81 1 373 351 128 279 0 281 369 377 378 82 3 374 9 8 2 81 1 281
 668 13 279 373 0 204 200 379 81 1 377 354 128 201 0 375 373 380 381 82 3 378 9
 7 1 81 1 375 633 328 201 377 204 371 382 383 81 1 380 359 128 205 0 382 377 384
 385 82 3 381 9 9 2 81 1 382 634 328 205 380 16 375 386 387 81 1 384 372 128 1 0
 388 380 389 390 82 3 385 9 11 2 81 1 388 618 391 1 384 392 0 0 393 81 1 389 373
 128 11 0 15 384 394 395 82 3 390 6 0 3 81 1 15 664 13 11 389 0 300 2 396 81 1 3
94 374 128 291 0 300 389 397 398 82 3 395 10 0 1 81 1 300 663 13 291 394 0 293 1
5 399 81 1 397 375 128 283 0 293 394 400 401 82 3 398 10 1 1 81 1 293 662 13 283
 397 0 285 300 402 81 1 400 376 128 277 0 285 397 403 404 82 3 401 10 2 1 81 1 2
85 661 13 277 400 0 177 293 405 81 1 403 377 128 83 0 334 400 406 407 82 3 404 1
0 3 1 81 1 334 625 328 83 403 177 331 348 408 81 1 406 601 128 246 0 253 403 409
 410 82 3 407 10 0 2 81 1 253 659 13 246 406 0 275 177 411 81 1 409 602 128 255
 0 275 406 412 413 82 3 410 14 0 1 81 1 275 658 13 255 409 0 273 253 414 81 1 41
2 603 128 271 0 273 409 415 416 82 3 413 14 1 1 81 1 273 657 13 271 412 0 269 27
5 417 81 1 415 604 128 267 0 269 412 418 419 82 3 416 14 2 1 81 1 269 656 13 267
 415 0 251 273 420 81 1 418 605 128 247 0 251 415 249 421 82 3 419 14 3 1 81 1 2
51 655 13 247 418 0 245 269 422 81 1 249 606 128 244 0 245 418 423 424 82 3 421
 14 4 1 81 1 423 607 128 264 0 250 249 425 426 82 3 424 14 5 1 81 1 250 653 13 2
64 423 0 262 245 427 81 1 425 608 128 258 0 262 423 428 429 82 3 426 14 6 1 81 1
 262 652 13 258 425 0 211 250 430 81 1 428 609 128 208 0 386 425 431 432 82 3 42
9 14 7 1 81 1 386 635 328 208 428 211 382 433 434 81 1 431 610 128 212 0 433 428
 435 436 82 3 432 14 0 2 81 1 433 636 328 212 431 215 386 437 438 81 1 435 611 1
28 218 0 439 431 440 441 82 3 436 14 1 2 81 1 439 641 328 218 435 220 442 443 44
4 81 1 440 612 128 221 0 443 435 445 446 82 3 441 14 2 2 81 1 443 642 328 221 44
0 225 439 0 447 81 1 445 613 128 216 0 437 440 448 449 82 3 446 14 3 2 81 1 437
 637 328 216 445 236 433 240 450 81 1 448 614 128 230 0 240 445 451 452 82 3 449
 14 4 2 81 1 240 638 328 230 448 238 437 453 454 81 1 451 615 128 227 0 453 448
 455 456 82 3 452 14 5 2 81 1 453 639 328 227 451 229 240 442 457 81 1 455 616 1
28 222 0 442 451 458 459 82 3 456 14 6 2 81 1 442 640 328 222 455 233 453 439 46
0 81 1 458 617 128 160 0 348 455 0 461 82 3 459 14 7 2 81 1 348 626 328 160 458
 173 334 345 462 82 3 461 14 8 2 80 1 328 0 463 8001 0 0 0 0 3 5 0 0 0 FFFFTFTFF
FFFFF2 81 1 173 643 13 160 348 0 0 233 464 83 255 3 462 .615686274509804 .811764
705882353 .929411764705882 81 1 233 644 13 222 442 0 173 229 465 84 3 464 JPi81
 1 229 645 13 227 453 0 233 238 466 84 3 465 JPe84 3 466 JPa79 15 463 SDL/TYSA_C
OLOUR83 3 460 .615686274509804 .811764705882353 .929411764705882 83 3 457 .61568
6274509804 .811764705882353 .929411764705882 83 3 454 .615686274509804 .81176470
5882353 .929411764705882 81 1 236 647 13 216 437 0 238 225 467 83 3 450 .6156862
74509804 .811764705882353 .929411764705882 81 1 225 648 13 221 443 0 236 220 468
 84 3 467 JPS81 1 220 649 13 218 439 0 225 215 469 84 3 468 JPO81 1 215 650 13 2
12 433 0 220 211 470 84 3 469 JPK81 1 211 651 13 208 386 0 215 262 471 84 3 470
 JPG84 3 471 JPC83 3 447 .615686274509804 .811764705882353 .929411764705882 83 3
 444 .615686274509804 .811764705882353 .929411764705882 83 3 438 .61568627450980
4 .811764705882353 .929411764705882 83 3 434 .615686274509804 .811764705882353 .
929411764705882 84 3 430 JPd84 3 427 JPZ84 3 422 JPR84 3 420 JPN84 3 417 JPJ84 3
 414 JPF81 1 177 660 13 83 334 0 253 285 472 84 3 411 JPB84 3 472 JLC83 3 408 .6
15686274509804 .811764705882353 .929411764705882 84 3 405 JLN84 3 402 JLJ84 3 39
9 JLF84 3 396 JLB80 1 391 473 474 8038 0 0 0 0 0 0 0 0 0 TTTTTTTTTTTTTF10 81 1 3
92 619 473 1 388 14 0 0 475 98 255 6 393 80 97 114 116 32 49 80 1 473 476 477 80
17 0 0 0 0 0 0 0 0 0 TTTTTTTTTTTTTF3 81 1 14 620 478 1 392 2 0 0 479 84 6 475 Pa
rt 180 1 478 328 480 8040 0 0 0 0 3 5 0 0 0 TTTFFFFFFFFFFF2 83 3 479 .6156862745
09804 .811764705882353 .929411764705882 79 17 480 SDL/TYSA_COLOUR_279 13 477 SDL
/TYSA_NAME79 14 474 SDL/TYSA_UNAME81 1 16 666 13 205 382 0 2 204 481 83 3 387 .6
15686274509804 .811764705882353 .929411764705882 81 1 204 667 13 201 375 0 16 28
1 482 84 3 481 JKu84 3 482 JKm83 3 383 .615686274509804 .811764705882353 .929411
764705882 81 1 200 669 13 197 371 0 281 196 483 84 3 379 JKd81 1 196 670 13 193
 364 0 200 289 484 84 3 483 JKi84 3 484 JKa83 3 376 .615686274509804 .8117647058
82353 .929411764705882 83 3 372 .615686274509804 .811764705882353 .9294117647058
82 81 1 192 672 13 189 360 0 289 188 485 84 3 368 JKV81 1 188 673 13 185 353 0 1
92 297 486 84 3 485 JKW84 3 486 JKO83 3 365 .615686274509804 .811764705882353 .9
29411764705882 83 3 361 .615686274509804 .811764705882353 .929411764705882 81 1
 184 675 13 181 349 0 297 180 487 84 3 357 JKN81 1 180 676 13 174 345 0 184 302
 488 84 3 487 JKK84 3 488 JKC83 3 354 .615686274509804 .811764705882353 .9294117
64705882 83 3 350 .615686274509804 .811764705882353 .929411764705882 81 1 163 67
8 13 99 329 0 302 161 489 84 3 344 JKF84 3 489 JHW83 3 341 .615686274509804 .811
764705882353 .929411764705882 83 3 338 .615686274509804 .811764705882353 .929411
764705882 81 1 164 680 13 168 331 0 161 104 490 83 3 335 .615686274509804 .81176
4705882353 .929411764705882 84 3 490 JHO83 3 330 .615686274509804 .8117647058823
53 .929411764705882 82 3 309 6 9 1 17 303 0 186 303 303 0 491 114 0 0 +15 186 24
1 0 303 181 0 17 491 0 182 491 491 0 303 114 0 0 -15 182 236 0 491 174 492 15 49
2 237 0 27 174 0 17 27 0 492 27 27 0 493 11 0 0 +17 493 0 494 493 493 0 27 11 0
 0 -15 494 217 0 493 83 79 17 301 0 495 301 301 0 496 291 0 0 +15 495 278 0 301
 185 0 17 496 0 497 496 496 0 301 291 0 0 -15 497 256 0 496 83 494 17 298 0 194
 298 298 0 498 295 0 0 +15 194 282 0 298 189 0 17 498 0 190 498 498 0 298 295 0
 0 -15 190 277 0 498 185 495 17 294 0 499 294 294 0 500 283 0 0 +15 499 317 0 29
4 193 0 17 500 0 501 500 500 0 294 283 0 0 -15 501 295 0 500 83 497 17 290 0 202
 290 290 0 502 287 0 0 +15 202 321 0 290 197 0 17 502 0 198 502 502 0 290 287 0
 0 -15 198 316 0 502 193 499 17 286 0 503 286 286 0 504 277 0 0 +15 503 356 0 28
6 201 0 17 504 0 178 504 504 0 286 277 0 0 -15 178 334 0 504 83 501 17 282 0 209
 282 282 0 505 279 0 0 +15 209 360 0 282 205 0 17 505 0 206 505 505 0 282 279 0
 0 -15 206 355 0 505 201 503 17 276 0 217 276 276 0 506 255 0 0 +15 217 565 0 27
6 212 0 17 506 0 213 506 506 0 276 255 0 0 -15 213 560 0 506 208 507 15 507 561
 0 254 208 0 17 254 0 507 254 254 0 508 246 0 0 +17 508 0 509 508 508 0 254 246
 0 0 -15 509 447 0 508 160 159 17 274 0 510 274 274 0 511 271 0 0 +15 510 495 0
 274 218 0 17 511 0 175 511 511 0 274 271 0 0 -15 175 468 0 511 160 512 15 512 4
61 0 513 160 514 17 513 0 512 513 513 0 266 264 0 0 -15 514 454 0 515 160 509 17
 515 0 514 515 515 0 257 247 0 0 -17 257 0 516 257 257 0 515 247 0 0 +15 516 539
 0 257 216 0 17 266 0 517 266 266 0 513 264 0 0 +15 517 517 0 266 227 0 17 270 0
 226 270 270 0 518 267 0 0 +15 226 499 0 270 221 0 17 518 0 223 518 518 0 270 26
7 0 0 -15 223 494 0 518 218 510 17 263 0 234 263 263 0 519 258 0 0 +15 234 521 0
 263 222 0 17 519 0 231 519 519 0 263 258 0 0 -15 231 516 0 519 227 517 84 3 252
 JPV15 237 538 0 243 216 516 84 3 241 JPW84 3 167 JHC84 3 165 JHS17 62 0 96 60 9
1 56 97 117 0 122 +82 3 140 6 1 1 82 3 136 6 2 1 84 3 133 JHR82 3 132 6 3 1 79 1
2 129 BTI/ExportId84 3 106 JHt84 3 78 JHM84 3 74 JHE84 3 66 JHQ84 3 59 JHY84 3 3
6 JHU19 20 138 0 1 0 10 6 S0 74 4 CI16 index_map_offset0 0 1 dCCZ20 18 6 0 0 458
 388 392 14 443 51 0 0 0 0 0 0 0 0 0 0 0 0 0 0 84 3 17 JHD1 0 
